HIERARCHY
ROOT Hips
{
	OFFSET -14.64140 90.27770 -84.91600
	CHANNELS 6 Xposition Yposition Zposition Zrotation Xrotation Yrotation
	JOINT Spine
	{
		OFFSET 0.00000 13.20850 -1.60436
		CHANNELS 3 Zrotation Xrotation Yrotation
		JOINT Spine1
		{
			OFFSET 0.00000 8.61716 0.00000
			CHANNELS 3 Zrotation Xrotation Yrotation
			JOINT Spine2
			{
				OFFSET 0.00000 8.61717 0.00000
				CHANNELS 3 Zrotation Xrotation Yrotation
				JOINT Spine3
				{
					OFFSET 0.00000 8.61717 0.00000
					CHANNELS 3 Zrotation Xrotation Yrotation
					JOINT Neck
					{
						OFFSET 0.00000 11.07920 1.10792
						CHANNELS 3 Zrotation Xrotation Yrotation
						JOINT Neck1
						{
							OFFSET 0.00000 7.08032 0.00000
							CHANNELS 3 Zrotation Xrotation Yrotation
							JOINT Head
							{
								OFFSET 0.00000 7.08031 0.00000
								CHANNELS 3 Zrotation Xrotation Yrotation
								End site
								{
									OFFSET 0.00000 0.00000 0.00000
								}
							}
						}
					}
					JOINT RightShoulder
					{
						OFFSET -0.01000 7.91373 5.19711
						CHANNELS 3 Zrotation Xrotation Yrotation
						JOINT RightArm
						{
							OFFSET -18.41580 0.00000 0.00000
							CHANNELS 3 Zrotation Xrotation Yrotation
							JOINT RightForeArm
							{
								OFFSET -29.11090 0.00000 0.00000
								CHANNELS 3 Zrotation Xrotation Yrotation
								JOINT RightHand
								{
									OFFSET -24.65040 0.00000 0.00000
									CHANNELS 3 Zrotation Xrotation Yrotation
									JOINT RightHandThumb1
									{
										OFFSET -5.35114 -0.85590 3.97906
										CHANNELS 3 Zrotation Xrotation Yrotation
										JOINT RightHandThumb2
										{
											OFFSET -4.52789 0.00000 0.00000
											CHANNELS 3 Zrotation Xrotation Yrotation
											JOINT RightHandThumb3
											{
												OFFSET -2.46976 0.00000 0.00000
												CHANNELS 3 Zrotation Xrotation Yrotation
												End site
												{
													OFFSET 0.00000 0.00000 0.00000
												}
											}
										}
									}
									JOINT RightHandIndex1
									{
										OFFSET -14.26970 0.00000 2.88139
										CHANNELS 3 Zrotation Xrotation Yrotation
										JOINT RightHandIndex2
										{
											OFFSET -5.48836 0.00000 0.00000
											CHANNELS 3 Zrotation Xrotation Yrotation
											JOINT RightHandIndex3
											{
												OFFSET -3.01859 0.00000 0.00000
												CHANNELS 3 Zrotation Xrotation Yrotation
												End site
												{
													OFFSET 0.00000 0.00000 0.00000
												}
											}
										}
									}
									JOINT RightHandMiddle1
									{
										OFFSET -14.26970 0.00000 -0.09147
										CHANNELS 3 Zrotation Xrotation Yrotation
										JOINT RightHandMiddle2
										{
											OFFSET -6.17441 0.00000 0.00000
											CHANNELS 3 Zrotation Xrotation Yrotation
											JOINT RightHandMiddle3
											{
												OFFSET -3.56743 0.00000 0.00000
												CHANNELS 3 Zrotation Xrotation Yrotation
												End site
												{
													OFFSET 0.00000 0.00000 0.00000
												}
											}
										}
									}
									JOINT RightHandRing1
									{
										OFFSET -12.69180 0.00000 -3.06433
										CHANNELS 3 Zrotation Xrotation Yrotation
										JOINT RightHandRing2
										{
											OFFSET -5.62556 0.00000 0.00000
											CHANNELS 3 Zrotation Xrotation Yrotation
											JOINT RightHandRing3
											{
												OFFSET -3.56744 0.00000 0.00000
												CHANNELS 3 Zrotation Xrotation Yrotation
												End site
												{
													OFFSET 0.00000 0.00000 0.00000
												}
											}
										}
									}
									JOINT RightHandPinky1
									{
										OFFSET -11.11390 0.00000 -6.03719
										CHANNELS 3 Zrotation Xrotation Yrotation
										JOINT RightHandPinky2
										{
											OFFSET -4.52789 0.00000 0.00000
											CHANNELS 3 Zrotation Xrotation Yrotation
											JOINT RightHandPinky3
											{
												OFFSET -2.46976 0.00000 0.00000
												CHANNELS 3 Zrotation Xrotation Yrotation
												End site
												{
													OFFSET 0.00000 0.00000 0.00000
												}
											}
										}
									}
								}
							}
						}
					}
					JOINT LeftShoulder
					{
						OFFSET 0.01000 7.91373 5.19711
						CHANNELS 3 Zrotation Xrotation Yrotation
						JOINT LeftArm
						{
							OFFSET 18.41580 0.00000 0.00000
							CHANNELS 3 Zrotation Xrotation Yrotation
							JOINT LeftForeArm
							{
								OFFSET 29.11090 0.00000 0.00000
								CHANNELS 3 Zrotation Xrotation Yrotation
								JOINT LeftHand
								{
									OFFSET 24.65040 0.00000 0.00000
									CHANNELS 3 Zrotation Xrotation Yrotation
									JOINT LeftHandThumb1
									{
										OFFSET 5.35114 -0.85590 3.97906
										CHANNELS 3 Zrotation Xrotation Yrotation
										JOINT LeftHandThumb2
										{
											OFFSET 4.52789 0.00000 0.00000
											CHANNELS 3 Zrotation Xrotation Yrotation
											JOINT LeftHandThumb3
											{
												OFFSET 2.46977 0.00000 0.00000
												CHANNELS 3 Zrotation Xrotation Yrotation
												End site
												{
													OFFSET 0.00000 0.00000 0.00000
												}
											}
										}
									}
									JOINT LeftHandIndex1
									{
										OFFSET 14.26970 0.00000 2.88139
										CHANNELS 3 Zrotation Xrotation Yrotation
										JOINT LeftHandIndex2
										{
											OFFSET 5.48836 0.00000 0.00000
											CHANNELS 3 Zrotation Xrotation Yrotation
											JOINT LeftHandIndex3
											{
												OFFSET 3.01859 0.00000 0.00000
												CHANNELS 3 Zrotation Xrotation Yrotation
												End site
												{
													OFFSET 0.00000 0.00000 0.00000
												}
											}
										}
									}
									JOINT LeftHandMiddle1
									{
										OFFSET 14.26970 0.00000 -0.09147
										CHANNELS 3 Zrotation Xrotation Yrotation
										JOINT LeftHandMiddle2
										{
											OFFSET 6.17440 0.00000 0.00000
											CHANNELS 3 Zrotation Xrotation Yrotation
											JOINT LeftHandMiddle3
											{
												OFFSET 3.56744 0.00000 0.00000
												CHANNELS 3 Zrotation Xrotation Yrotation
												End site
												{
													OFFSET 0.00000 0.00000 0.00000
												}
											}
										}
									}
									JOINT LeftHandRing1
									{
										OFFSET 12.69180 0.00000 -3.06433
										CHANNELS 3 Zrotation Xrotation Yrotation
										JOINT LeftHandRing2
										{
											OFFSET 5.62556 0.00000 0.00000
											CHANNELS 3 Zrotation Xrotation Yrotation
											JOINT LeftHandRing3
											{
												OFFSET 3.56744 0.00000 0.00000
												CHANNELS 3 Zrotation Xrotation Yrotation
												End site
												{
													OFFSET 0.00000 0.00000 0.00000
												}
											}
										}
									}
									JOINT LeftHandPinky1
									{
										OFFSET 11.11390 0.00000 -6.03719
										CHANNELS 3 Zrotation Xrotation Yrotation
										JOINT LeftHandPinky2
										{
											OFFSET 4.52789 0.00000 0.00000
											CHANNELS 3 Zrotation Xrotation Yrotation
											JOINT LeftHandPinky3
											{
												OFFSET 2.46976 0.00000 0.00000
												CHANNELS 3 Zrotation Xrotation Yrotation
												End site
												{
													OFFSET 0.00000 0.00000 0.00000
												}
											}
										}
									}
								}
							}
						}
					}
					JOINT pCube4
					{
						OFFSET 0.00000 10.91090 1.10792
						CHANNELS 3 Zrotation Xrotation Yrotation
						End site
						{
							OFFSET 0.00000 0.00000 0.00000
						}
					}
				}
			}
		}
	}
	JOINT RightUpLeg
	{
		OFFSET -9.98441 0.00000 0.00000
		CHANNELS 3 Zrotation Xrotation Yrotation
		JOINT RightLeg
		{
			OFFSET 0.00000 -42.11790 0.00000
			CHANNELS 3 Zrotation Xrotation Yrotation
			JOINT RightFoot
			{
				OFFSET 0.00000 -45.00020 -0.00001
				CHANNELS 3 Zrotation Xrotation Yrotation
				JOINT RightForeFoot
				{
					OFFSET 0.00000 -3.74820 0.00000
					CHANNELS 3 Zrotation Xrotation Yrotation
					JOINT RightToeBase
					{
						OFFSET 0.00000 0.06325 14.43120
						CHANNELS 3 Zrotation Xrotation Yrotation
						End site
						{
							OFFSET 0.00000 0.00000 0.00000
						}
					}
				}
			}
		}
	}
	JOINT LeftUpLeg
	{
		OFFSET 9.98441 0.00000 0.00000
		CHANNELS 3 Zrotation Xrotation Yrotation
		JOINT LeftLeg
		{
			OFFSET 0.00000 -42.11800 0.00000
			CHANNELS 3 Zrotation Xrotation Yrotation
			JOINT LeftFoot
			{
				OFFSET 0.00000 -45.00070 0.00000
				CHANNELS 3 Zrotation Xrotation Yrotation
				JOINT LeftForeFoot
				{
					OFFSET 0.00000 -3.74824 0.00000
					CHANNELS 3 Zrotation Xrotation Yrotation
					JOINT LeftToeBase
					{
						OFFSET 0.00000 0.06325 14.43110
						CHANNELS 3 Zrotation Xrotation Yrotation
						End site
						{
							OFFSET 0.00000 0.00000 0.00000
						}
					}
				}
			}
		}
	}
}
MOTION
Frames: 4
Frame Time: 0.050000
0.002120031771627517 -0.016903989564611154 -0.046194414789839405 -0.020442175845678125 0.04169671427929227 0.018168722806409618 -1.5127661258781766 1.8508198851815127 -0.955314176388331 -0.8983247687423297 3.9757162856451393 0.3563558569442833 -1.0988206578183062 -1.2371491759224311 -0.6793080229807131 0.7028207283583494 0.48647801430628124 -0.766086770199201 0.007189430997461867 11.710496121503832 -1.1252161888393983 0.17627328714507792 -1.0034712279632303 -4.331684665463983 0.643762029527349 -16.60930211508007 -0.3906111214076041 -2.0455147352357193 0.9225256723165239 -15.159322693359396 74.76637008220423 26.094309947911505 1.122595117577035 11.657678506760611 2.207472527704029 47.09982209921404 21.379543024324136 0.04007177131698007 -4.924233647630831 4.504148085556481 -0.10224586068744249 -1.580031685355759 0.04797911178494 0.033697412195717945 -56.26212120553057 -0.0495957179651618 0.013325759760436658 -56.2107192711744 -38.739672938467265 -0.00028290770677087164 -0.003071694428117106 -0.0026947513931418893 0.04779936852618818 0.027858744315411323 0.0035560232332836166 -0.012272088853473667 -0.041202474061119126 -36.71459526995499 -0.04985016053442057 0.04088038643859549 -0.029600360594991274 -0.008281924062091486 -0.026813711637417845 -0.03408504053086015 0.010075012777041701 -0.011639291469784778 -19.73388155769585 -0.019747948951498364 -0.014389448358533388 0.00017850822782243116 0.025304224646570124 0.015196191894853404 -0.03548786379159795 -0.02063273940780113 0.0078058084608088555 24.029978687973344 -0.04386457640355642 0.02965842770309334 28.905259455613557 -0.03829097821685082 -0.038888391498607414 28.81524071290903 0.025697690011958724 0.030740741535860785 3.6037827595598184 0.9989908724575818 13.779274535724884 -69.96921444840538 34.7567667636152 -6.654497275655766 -4.026563450164142 -3.2635625884929578 -95.48705667875062 -14.582652162548758 -4.774648546147558 2.9454673858921847 -0.5122776265747109 0.06331074643606284 -8.101340623676428 -0.03419903181471341 0.03581655347567466 44.59169641645141 -0.006095732335944395 0.002945788452431866 44.58418450523126 12.461161429665395 0.022972483730076917 -0.015660611302351052 0.03890596857111583 0.031817510778001594 -0.008034987717921568 0.04416013461697499 -0.002317483042919972 0.011777889883095437 11.085004764417953 -0.012109900911703327 0.016693613302614076 0.019358265574930877 0.01557656733939058 -0.01086394809589862 -0.004682320861168001 0.004678830971697025 -0.034515172022671466 4.798722711161883 0.013124987712749262 0.010898949580668251 -0.005673841064743654 -0.019111929467755626 -0.0011289813224950435 0.005851859779106386 0.007594265065876112 0.021418278353333174 -5.610172278480353 -0.04853461731311579 -0.045670261543666414 -6.749193109167594 -0.016698560621160992 0.005123837622067824 -6.765183855701422 0.04816171833290895 0.020617654926713157 -0.02389981655302484 0.02416529381749269 0.020525464049650773 8.05839010842026 3.4670462409201512 -19.17874770701107 -0.039389268412829644 10.401845171551143 -0.009479105691037295 -5.667856589195383 -15.653770505363497 3.142455187666109 -0.026630882494273474 0.011517586168334024 -0.02083705173227406 -0.042896723565278704 4.698509580682322 0.0053751625316745925 12.454086132607525 -8.281089836525956 6.90650153736336 0.026959297534393294 46.41295459544153 0.013817447830554623 -4.328353987134071 -14.77955138817394 -3.811916473504101 -0.02687383308740259 -0.01938894614425006 -0.015800245508872796 -0.020990226676579203 -10.71061528039528 -0.04305340307493104 
-0.03305028335388923 0.03596341017560143 0.038175372240909305 0.01975024183487155 0.0022155316113088483 -0.013056244236985787 -1.3961206927129919 1.6712611159259805 -0.9493771497379735 -0.8932722649447066 3.8984258894099777 0.36977123810513796 -1.0733105086904695 -1.3666069863304917 -0.7256223001234221 0.7187559789564857 0.4343523786169003 -0.7417479846044571 0.17800169461352247 11.688801795734566 -1.3487816963432389 0.20723719962487064 -0.9376431236909307 -4.803321169218672 0.7753771734124987 -16.4336341688355 -0.42298031658825097 -2.233020374480667 1.012902611602934 -15.288006249324505 75.093487641211 26.00655702910717 0.7332494269175555 12.353184666798878 2.740702331923325 46.841186836257336 21.810707169138574 0.07438533286864435 -4.942022922275028 4.494656016316064 -0.11656267027615229 -1.5934384754088993 0.04069023112954654 -0.03570374238653682 -56.23659180677073 0.008565094352709472 0.049630444981033674 -56.22897142450355 -38.798272347428664 0.0037365686647039664 0.03636077935844582 0.04453876708673585 0.04450615454113846 0.04075554966343211 -0.043063588399983074 0.04214946054738695 0.003404725447158783 -36.69994579518009 -0.03548860480567439 0.010393703478043376 0.04531525158415204 0.023627143505969648 -0.03405084691409193 -0.03546338222119652 0.0005535934705178129 -0.03653521824572687 -19.717064068287357 0.03124497147460996 0.035394461312990844 -0.007881684647390906 -0.01739542380414602 -0.04560728895046256 0.047388513033755686 -0.004241349837237214 -0.04491435878424451 24.063172619532146 0.019332931724451212 0.037281698142056514 28.834508443802218 -0.0035242312654505366 -0.03710370773509849 28.895681474051155 -0.004460804820799966 0.025135122978454598 3.575105026429047 1.0372291246303642 13.735416051348093 -70.3976259987315 35.34810091214727 -5.574949487089879 -3.7480585879525785 -4.024140699658787 -96.30130106073672 -14.471632809604392 -4.8946096556284635 2.6308336671511667 -0.4938681421066908 0.09359332127655304 -8.12229908521851 0.0027931100915447576 -0.0011916684510235695 44.57391716421675 0.017348640447866073 0.036822011165336184 44.554259300891104 12.448596967761835 -0.01223283424449096 -0.002046342146048531 0.015264555941177479 -0.02498729972913101 -0.02813697529507812 -0.020472590808024403 0.014476652131937323 0.0213498949890533 11.078527527897924 0.02806790631827162 0.010018674626540259 0.03993416270741821 -0.04340582231725669 0.004890778711404459 -0.008215721255090973 -0.019219282527317905 0.020483821910034034 4.804817191565161 0.006410130131386549 -0.012007607274389943 -0.03820937261198739 0.0050216980516076285 0.025916392567403537 -0.0221374957527399 0.027476719576186234 -0.04742796967759164 -5.648112325912287 0.02191989443045481 0.04050836244009126 -6.713070545752657 -0.002234610399648654 -0.040548479118251574 -6.680857345024559 -0.011865883688008706 0.001704916903712464 -0.007843771505084456 0.014735266371217467 0.013794148988312426 8.077127883917488 3.449407250249698 -19.233972244011376 -0.008738788378226819 10.443658839646256 -0.014048153345197028 -5.571680334920691 -15.685558047437025 3.1640514038318073 0.03285447785835921 0.016929663983692226 0.025476504946778673 0.027771129196753123 4.714220023608199 -0.0404930015109252 12.48903698852498 -8.206281306539733 6.8647160342070634 0.005746144300494116 46.37224333279487 0.020960480387648795 -4.333171021325857 -14.704965918315064 -3.849148094187927 -0.007152179778337886 -0.003615687796121483 -0.004929146519109448 0.04562007211276614 -10.792803956421954 0.0017820917362097715 
0.04686654208526542 -0.025687513473520607 0.012028919170528158 -0.009232843875080547 0.005032001624486149 -0.002789313713726951 -1.3477720076898736 1.4913301654791546 -0.9178247372176015 -0.9569397996602085 3.8953667387527187 0.3549046285975325 -1.0430277433352906 -1.446036466041895 -0.7492994288166901 0.7166724487780114 0.4144783181536263 -0.7653640209863739 0.23745536998519717 11.71777241197046 -1.392662460912688 0.22263551415631525 -0.8340198629603816 -4.84529238028889 0.8364957765195931 -16.270694738190674 -0.44275604337566554 -2.4422162867119144 1.0160910043444928 -15.290610705047136 75.25560818681238 25.97469422135262 0.23634886427226326 12.965796650845297 3.312434218737041 46.536661498228035 22.10818729431453 0.07201546073150193 -4.913606094002767 4.493329770392181 -0.10550141058162305 -1.5959048183014932 -0.022493020597109302 0.00649692924947007 -56.205541299702155 -0.033137768353552643 -0.02827153599345396 -56.25454723450753 -38.743499038338335 -0.01878429702039944 0.017631760110174734 0.007618380201496472 0.0289369649851462 -0.008454422912136269 -0.040003582814464075 0.008302605121651752 0.04221138752822648 -36.64657655938921 0.024341455959232816 -0.020520032101561194 0.0013700241733443324 -0.0061273736888633095 0.0010549120006266024 -0.01898952306315011 0.03297670903189778 0.025736140990512166 -19.79133983191925 -0.018164767791502803 -0.009901626274398797 -0.037404199512806685 -0.03654530491897989 0.028375678368171103 0.005625276353159245 0.0036190686005126206 -0.029003255628538623 24.082817952693443 -0.01148136509998703 -0.026017642140899383 28.857144564875743 -0.015174522579036407 -0.0009779767440165432 28.878323147970814 0.0009440088759918407 -0.03223200277697346 3.694557628785343 1.1189130183343872 13.744878720704156 -70.72290918087963 35.87226645731589 -4.823795309307354 -3.7372844441031834 -4.710590921085118 -96.83176319317216 -14.008150346032542 -4.859188159202652 2.1494871513531253 -0.4906689999161601 0.05215110899312835 -8.169655793202267 0.03706502025219058 -0.018859054102492497 44.58282435837706 0.03970833507673498 0.04275061109786051 44.58052758474002 12.498686542876467 -0.023080628966275656 0.048118625417198545 0.01094540971314524 -0.03596955967671825 -0.030516952495722914 -0.0002890736737067957 0.011809855289494329 -0.013412255407524916 11.067134706461795 -0.006179995773372451 -0.02628936003823861 -0.006088935053737223 -0.01832240593907528 -0.010080928086578046 -0.0037242393298335917 -0.015032798799894385 0.007449465029516466 4.723362193666224 -0.03642913902613833 0.04864117289543611 0.014718444878728417 0.03783461219989508 -0.0009160959903016637 0.02428099063233958 -0.009717288543149205 -0.02940996234656296 -5.5734883378360855 0.0028849513495557144 0.032661759181195 -6.739309465818032 0.0428417761807888 -0.036851317848690016 -6.695138872950385 0.028519139560463477 0.04152975698837565 -0.00913262556770599 -0.004469086268312383 -0.013078480358771225 8.01514285931076 3.444186732548508 -19.184586002378694 -0.04663285509246813 10.365960479654431 -0.027194301633673607 -5.595728373214563 -15.631308937747768 3.2076126678405013 -0.008192377878687467 -0.009352474679584917 0.025162482927160605 -0.045798832603942324 4.7027132468350485 0.04778092684032759 12.448180275014145 -8.262103563267742 6.877470334184414 0.041034054029038085 46.37316776871842 -0.03298791935461214 -4.335633682649863 -14.758470488648905 -3.8510912126227517 0.009766622566055089 0.006926787428868792 -0.013609722715800498 0.014994432661644052 -10.779821046693703 0.00788779431496791 
0.009457918548075846 -0.045522571322029415 -0.029556963270923366 0.014891017802192631 0.04991252793480644 0.018007925893666978 -1.3530559989821747 1.2524263484322908 -0.9276075482165336 -0.9593642492947689 3.8195363867067114 0.3667681677862903 -1.1042416731445273 -1.4730211990231052 -0.7153065635489041 0.6357122510887329 0.427465666572906 -0.8017596047699763 0.19375305391310116 11.950647082039684 -1.299196509936833 0.2874630960189215 -0.7048758832832491 -4.604603574260062 0.8089079754874795 -16.021158068744764 -0.41600778813990075 -2.5429171314885113 1.0671394417893334 -15.312745090786425 75.5142682379759 26.128533501673743 -0.2210163926075977 13.551579548534765 3.70944675129921 46.43774731583943 22.223102858830792 0.08102402666569528 -4.903636573465961 4.521274816132794 -0.15423949839334405 -1.6181744757757923 -0.0024762958577362916 -0.0026145196163431536 -56.24090057645194 -0.018767171686720714 0.008431798850252333 -56.22079957040405 -38.76744527334773 -0.003674231262954539 0.02852147600401999 0.030092339278223267 0.003092524215455951 -0.007411502532839824 -0.03909120331825599 0.03713698818275226 0.021526755853327542 -36.67032730861134 0.020804989596664727 -0.007226325857599482 -0.04884744964569569 -0.030977951786481397 -0.018973897068685016 -0.025100369356448424 0.03629824867053881 0.01723840768148119 -19.770489676617206 0.0473956012369284 -0.03673312510826364 0.026077376769260252 0.006744787125422173 -0.044826258110116354 0.02064146399789424 0.017507166127698745 0.03168727007172991 24.073462725479537 0.024805092055488462 -0.011425650824179007 28.85221165368902 0.04532723172763812 0.027467474840208176 28.856937130139816 -0.03393113066653373 -0.019065318819285 3.8115269085190433 1.0830256821362139 13.78330586884005 -70.93898668587079 36.1670349449141 -4.48121599253165 -3.5770295307096007 -5.360065990674218 -97.73840651695497 -12.912544950310135 -4.536916654852618 1.3060838642683115 -0.4389749485893963 0.037730931296577924 -8.16091887725405 0.027586758726465994 0.012663680758803818 44.55058819875515 0.004807744943998051 -0.01257955699614558 44.576269870680115 12.436900472594123 0.007723129244829704 -0.026691448606978276 -0.0168259190269661 -0.0019004185345497155 -0.024461526524685136 0.04519964958909608 -0.03322556012073549 -0.03731159709583963 11.118890722056916 -0.0318341538839667 0.0027497241337521546 -0.0033916904777235132 0.0038089938012170615 0.0399486802752507 -0.04940266230780077 -0.04245531185302544 0.007043403243391093 4.789156980934404 -0.037533111866829276 0.018277142463033736 -0.029424306503440644 0.008218284972011864 -0.012119567686382558 -0.003944013438638514 -0.039596216432599654 0.010288667719752167 -5.576210264555212 -0.01406859465135817 0.034500280008955914 -6.745909860994158 -0.008383275359260508 0.037153607465987316 -6.750890306714084 -0.018983869532531256 0.008204602022020762 -0.036681932828414913 -0.025208925604265738 -0.0007933210625116319 8.058202790327277 3.4581217897006686 -19.247219691632665 0.021990013145513687 10.444130022453834 0.039432042817585874 -5.604047357050229 -15.661122153701482 3.1662143668090694 0.030968414319515674 0.02458150128884175 -0.033107751247357264 -0.041857142199954615 4.702198527814922 -0.012762018884257393 12.476320427330334 -8.226756101032455 6.912670356336927 -0.00945269969447242 46.36013462096852 0.0030897487629775846 -4.286443272142751 -14.731629462299017 -3.847850461994948 0.002931563588126577 -0.0013609469735928815 -0.04614064949387101 0.020553907183586812 -10.745619838821515 -0.0069497761717230355 
